<?xml version="1.0" standalone="no"?>
<!DOCTYPE svg PUBLIC "-//W3C//DTD SVG 20010904//EN"
 "http://www.w3.org/TR/2001/REC-SVG-20010904/DTD/svg10.dtd">
<svg version="1.0" xmlns="http://www.w3.org/2000/svg"
 width="224.000000pt" height="224.000000pt" viewBox="0 0 224.000000 224.000000"
 preserveAspectRatio="xMidYMid meet">
<metadata>
Created by potrace 1.14, written by Peter Selinger 2001-2017
</metadata>
<g transform="translate(0.000000,224.000000) scale(0.100000,-0.100000)"
fill="#000000" stroke="none">
<path d="M999 2236 c-2 -2 -24 -6 -49 -9 -105 -14 -250 -61 -350 -115 -156
-84 -315 -226 -397 -352 -24 -36 -46 -69 -51 -75 -17 -23 -75 -154 -97 -221
-67 -205 -71 -450 -10 -659 85 -293 300 -548 580 -688 75 -38 196 -80 260 -93
22 -4 47 -9 55 -11 37 -10 290 -11 340 -2 30 6 68 12 84 15 55 10 177 54 248
89 113 56 207 124 298 215 162 161 264 357 316 600 12 61 12 289 0 365 -62
364 -283 664 -611 828 -75 38 -196 80 -260 93 -22 4 -47 9 -55 11 -22 6 -296
14 -301 9z"/>
</g>
</svg>
